HIERARCHY
ROOT Hips
{
  OFFSET -3.70995 101.374 -116.051
  CHANNELS 6 Xposition Yposition Zposition Zrotation Xrotation Yrotation
  JOINT RightUpLeg
  {
    OFFSET -8.9458 -8.66707 0.101652
    CHANNELS 3 Zrotation Xrotation Yrotation
    JOINT RightLeg
    {
      OFFSET 0 -44.4227 1.3727
      CHANNELS 3 Zrotation Xrotation Yrotation
      JOINT RightFoot
      {
        OFFSET 0.253549 -42.0924 -1.46059
        CHANNELS 3 Zrotation Xrotation Yrotation
        JOINT RightToes
        {
          OFFSET 0.04 -4.41509 8.4991
          CHANNELS 3 Zrotation Xrotation Yrotation
          End Site
          {
            OFFSET -0.08 -0.137448 9.77979
          }
        }
      }
    }
  }
  JOINT Spine
  {
    OFFSET 0 11.8905 0
    CHANNELS 3 Zrotation Xrotation Yrotation
    JOINT Spine1
    {
      OFFSET 0 25.6574 0.127663
      CHANNELS 3 Zrotation Xrotation Yrotation
      JOINT HEad
      {
        OFFSET 0 8.73416 0.011341
        CHANNELS 3 Zrotation Xrotation Yrotation
        End Site
        {
          OFFSET -0.29 12.7742 2.51395
        }
      }
      JOINT LeftShoulder1
      {
        OFFSET 8.99 -0.362252 -0.22
        CHANNELS 3 Zrotation Xrotation Yrotation
        JOINT LeftArm
        {
          OFFSET 10.2827 -0.00338 0.322123
          CHANNELS 3 Zrotation Xrotation Yrotation
          JOINT LeftForeArm
          {
            OFFSET 32.7669 0.099144 -1.42434
            CHANNELS 3 Zrotation Xrotation Yrotation
            JOINT LeftHand
            {
              OFFSET 27.5643 0.085362 1.02216
              CHANNELS 3 Zrotation Xrotation Yrotation
              End Site
              {
                OFFSET 16.7443 -0.6 1.50291
              }
            }
          }
        }
      }
      JOINT RightShoulder
      {
        OFFSET -8.99 -0.362252 -0.22
        CHANNELS 3 Zrotation Xrotation Yrotation
        JOINT RightArm
        {
          OFFSET -10.2827 -0.00338 0.322123
          CHANNELS 3 Zrotation Xrotation Yrotation
          JOINT RightForeArm
          {
            OFFSET -32.8971 0.099144 -1.42434
            CHANNELS 3 Zrotation Xrotation Yrotation
            JOINT RightHand
            {
              OFFSET -27.4921 0.085362 1.02216
              CHANNELS 3 Zrotation Xrotation Yrotation
              End Site
              {
                OFFSET -16.6312 -0.6 1.50291
              }
            }
          }
        }
      }
    }
  }
  JOINT LeftUpLeg
  {
    OFFSET 8.9458 -8.66707 0.101652
    CHANNELS 3 Zrotation Xrotation Yrotation
    JOINT LeftLeg
    {
      OFFSET 0 -44.4227 1.3727
      CHANNELS 3 Zrotation Xrotation Yrotation
      JOINT LeftFoot
      {
        OFFSET -0.253549 -42.0924 -1.46059
        CHANNELS 3 Zrotation Xrotation Yrotation
        JOINT LeftToes
        {
          OFFSET -0.04 -4.41509 8.4991
          CHANNELS 3 Zrotation Xrotation Yrotation
          End Site
          {
            OFFSET 0.08 -0.047448 9.77979
          }
        }
      }
    }
  }
}
MOTION
Frames:	7
Frame Time:	0.0166667
-1.62713 100.695 -0.598021 -2.6844 0.0209083 1.19887 6.72833 -13.5593 4.30818 4.48613 10.3897 -21.9562 2.23888 -3.76495 -0.166885 -1.23597 18.4267 -2.99079 -1.51498 0.196837 0.32319 1.89289 5.93899 -0.244311 1.79367 -6.72587 4.62832 3.72721e-016 -2.38542e-015 -1.98785e-016 -92.228 -50.3822 -8.28579 -7.89938 12.9682 -16.1358 0.368473 9.90896 -0.00117926 -2.7316 0.379885 2.76734 89.7498 -46.3966 0.505119 7.88178 13.0227 12.4988 -0.369625 9.91382 0.00119886 3.06022 -8.77309 6.83043 3.12312 59.6299 4.6103 -6.03698 10.6113 0.722888 1.90192 16.3683 -4.93473 
-1.7796 100.87 0.795961 -2.6217 0.434394 1.47098 6.71537 -13.0196 3.47527 4.35612 10.2828 -21.3479 2.21532 -4.24568 -0.159073 -1.2346 17.4313 -2.7689 -1.47264 0.269497 0.306312 1.7817 5.62616 -0.229839 1.77212 -6.87093 4.47983 -7.95139e-016 0 -0 -91.9095 -50.5256 -7.78398 -7.80818 12.9516 -16.1637 0.368473 9.90896 -0.00117926 -2.63707 0.381475 2.70271 89.4101 -46.0113 0.36821 8.37983 13.1256 13.0506 -0.369625 9.91382 0.00119886 2.88055 -11.439 6.83635 5.17384 62.1405 3.40121 -5.91725 9.27699 0.638094 1.24138 15.14 -3.65958 
-1.9221 101.068 2.16959 -2.40855 0.83527 1.63497 6.54534 -12.3979 2.39079 4.20744 10.0446 -20.4112 2.12985 -4.6273 -0.150758 -1.35988 16.4515 -2.45207 -1.60414 0.318872 0.294149 1.60564 5.32977 -0.212134 1.6956 -7.02422 4.4484 7.20594e-016 -7.95139e-016 1.98785e-016 -91.6248 -50.7269 -7.35108 -7.84446 12.9636 -16.2072 0.368473 9.90896 -0.00117926 -2.63247 0.390383 2.84932 89.2256 -45.6066 0.380656 8.8199 13.2232 13.591 -0.369625 9.91382 0.00119886 2.51052 -13.9723 6.52666 6.2382 63.9572 3.67148 -5.89071 7.4288 0.542245 1.21684 12.9121 -3.5117 
-2.06594 101.261 3.50763 -2.19744 1.17214 1.68655 6.30204 -11.6946 1.6868 4.28804 9.70767 -19.8344 2.10599 -5.13716 -0.141267 -1.64919 16.1251 -2.16544 -1.65964 0.345188 0.270668 1.40931 5.17382 -0.193286 1.67512 -7.20754 4.53781 8.69683e-016 0 -0 -91.4299 -51.0715 -7.08141 -7.98667 12.9968 -16.2036 0.368473 9.90896 -0.00117926 -2.70774 0.408883 3.21976 89.2672 -45.2698 0.568773 9.11139 13.3005 14.0923 -0.369625 9.91382 0.00119886 2.20938 -16.2814 6.06744 6.40032 64.9071 4.833 -5.45549 6.38781 0.459442 1.03697 10.6652 -3.05627 
-2.20637 101.433 4.8084 -1.98015 1.4385 1.62494 6.05991 -10.9343 1.17757 4.425 9.34734 -19.3117 2.11419 -5.61422 -0.131926 -1.70398 15.8243 -2.05472 -1.67817 0.366902 0.241215 1.19564 5.13593 -0.172839 1.63987 -7.3668 4.72293 -8.44835e-016 1.59028e-015 -3.97569e-016 -91.2925 -51.5145 -6.88916 -8.19342 13.0443 -16.2318 0.368473 9.90896 -0.00117926 -2.86169 0.430406 3.73524 89.5656 -44.952 1.0011 9.25483 13.3487 14.4889 -0.369625 9.91382 0.00119886 1.95154 -18.3728 5.48904 5.7244 65.1751 6.55767 -4.99644 5.3459 0.380393 0.868198 8.15706 -2.59837 
-2.34475 101.549 6.0588 -1.81118 1.58782 1.42607 5.9364 -10.1305 0.861996 4.51902 9.07002 -18.6503 2.17354 -5.95239 -0.123904 -0.862981 14.9862 -2.47671 -1.60761 0.413147 0.205303 0.983312 5.26906 -0.151093 1.52292 -7.4374 4.98375 -1.49089e-016 0 -3.97569e-016 -91.2347 -52.0719 -6.74946 -8.3917 13.0919 -16.3737 0.368473 9.90896 -0.00117926 -3.09051 0.450476 4.33808 90.2318 -44.6259 1.83631 9.18421 13.3453 14.6572 -0.369625 9.91382 0.00119886 1.87108 -20.1972 4.88852 4.37542 64.9331 8.13244 -4.75627 3.79141 0.302466 0.565263 5.42669 -1.80648 
-2.47411 101.638 7.27782 -1.65973 1.68852 1.15547 5.86936 -9.31386 0.81523 4.58878 8.81483 -18.195 2.26125 -6.21428 -0.117005 0.033494 14.0536 -2.92297 -1.47147 0.452129 0.164402 0.769415 5.47121 -0.127854 1.4193 -7.47279 5.308 -3.97569e-016 0 3.97569e-016 -91.1496 -52.6432 -6.57321 -8.65378 13.153 -16.5582 0.368473 9.90896 -0.00117926 -3.39108 0.465139 4.97751 91.0849 -44.2997 2.82297 9.01028 13.3192 14.743 -0.369625 9.91382 0.00119886 1.8342 -21.8231 4.25394 2.8168 64.1069 9.52235 -4.66927 2.15587 0.232086 0.385757 2.60126 -1.16583 
